<svg width="148" height="24" viewBox="0 0 148 24" fill="none" xmlns="http://www.w3.org/2000/svg">
<path d="M5.7 3.8H0.1V0.499999H15.35V3.8H9.75V18H5.7V3.8ZM29.7984 4.55L23.7234 18.825C23.1068 20.375 22.3401 21.4667 21.4234 22.1C20.5234 22.7333 19.4318 23.05 18.1484 23.05C17.4484 23.05 16.7568 22.9417 16.0734 22.725C15.3901 22.5083 14.8318 22.2083 14.3984 21.825L15.8234 19.05C16.1234 19.3167 16.4651 19.525 16.8484 19.675C17.2484 19.825 17.6401 19.9 18.0234 19.9C18.5568 19.9 18.9901 19.7667 19.3234 19.5C19.6568 19.25 19.9568 18.825 20.2234 18.225L20.2734 18.1L14.4484 4.55H18.4734L22.2484 13.675L26.0484 4.55H29.7984ZM35.7195 18.2C34.6029 18.2 33.5112 18.0667 32.4445 17.8C31.3779 17.5167 30.5279 17.1667 29.8945 16.75L31.1945 13.95C31.7945 14.3333 32.5195 14.65 33.3695 14.9C34.2195 15.1333 35.0529 15.25 35.8695 15.25C37.5195 15.25 38.3445 14.8417 38.3445 14.025C38.3445 13.6417 38.1195 13.3667 37.6695 13.2C37.2195 13.0333 36.5279 12.8917 35.5945 12.775C34.4945 12.6083 33.5862 12.4167 32.8695 12.2C32.1529 11.9833 31.5279 11.6 30.9945 11.05C30.4779 10.5 30.2195 9.71667 30.2195 8.7C30.2195 7.85 30.4612 7.1 30.9445 6.45C31.4445 5.78333 32.1612 5.26667 33.0945 4.9C34.0445 4.53333 35.1612 4.35 36.4445 4.35C37.3945 4.35 38.3362 4.45833 39.2695 4.675C40.2195 4.875 41.0029 5.15833 41.6195 5.525L40.3195 8.3C39.1362 7.63333 37.8445 7.3 36.4445 7.3C35.6112 7.3 34.9862 7.41667 34.5695 7.65C34.1529 7.88333 33.9445 8.18333 33.9445 8.55C33.9445 8.96667 34.1695 9.25833 34.6195 9.425C35.0695 9.59167 35.7862 9.75 36.7695 9.9C37.8695 10.0833 38.7695 10.2833 39.4695 10.5C40.1695 10.7 40.7779 11.075 41.2945 11.625C41.8112 12.175 42.0695 12.9417 42.0695 13.925C42.0695 14.7583 41.8195 15.5 41.3195 16.15C40.8195 16.8 40.0862 17.3083 39.1195 17.675C38.1695 18.025 37.0362 18.2 35.7195 18.2ZM50.8758 18.2C49.4591 18.2 48.1841 17.9083 47.0508 17.325C45.9341 16.725 45.0591 15.9 44.4258 14.85C43.7924 13.8 43.4758 12.6083 43.4758 11.275C43.4758 9.94167 43.7924 8.75 44.4258 7.7C45.0591 6.65 45.9341 5.83333 47.0508 5.25C48.1841 4.65 49.4591 4.35 50.8758 4.35C52.2924 4.35 53.5591 4.65 54.6758 5.25C55.7924 5.83333 56.6674 6.65 57.3008 7.7C57.9341 8.75 58.2508 9.94167 58.2508 11.275C58.2508 12.6083 57.9341 13.8 57.3008 14.85C56.6674 15.9 55.7924 16.725 54.6758 17.325C53.5591 17.9083 52.2924 18.2 50.8758 18.2ZM50.8758 15C51.8758 15 52.6924 14.6667 53.3258 14C53.9758 13.3167 54.3008 12.4083 54.3008 11.275C54.3008 10.1417 53.9758 9.24167 53.3258 8.575C52.6924 7.89167 51.8758 7.55 50.8758 7.55C49.8758 7.55 49.0508 7.89167 48.4008 8.575C47.7508 9.24167 47.4258 10.1417 47.4258 11.275C47.4258 12.4083 47.7508 13.3167 48.4008 14C49.0508 14.6667 49.8758 15 50.8758 15ZM69.0326 4.35C70.6993 4.35 72.041 4.85 73.0576 5.85C74.091 6.85 74.6076 8.33333 74.6076 10.3V18H70.7076V10.9C70.7076 9.83333 70.4743 9.04167 70.0076 8.525C69.541 7.99167 68.866 7.725 67.9826 7.725C66.9993 7.725 66.216 8.03333 65.6326 8.65C65.0493 9.25 64.7576 10.15 64.7576 11.35V18H60.8576V4.55H64.5826V6.125C65.0993 5.55833 65.741 5.125 66.5076 4.825C67.2743 4.50833 68.116 4.35 69.0326 4.35ZM82.6678 18.2C81.5511 18.2 80.4594 18.0667 79.3928 17.8C78.3261 17.5167 77.4761 17.1667 76.8428 16.75L78.1428 13.95C78.7428 14.3333 79.4678 14.65 80.3178 14.9C81.1678 15.1333 82.0011 15.25 82.8178 15.25C84.4678 15.25 85.2928 14.8417 85.2928 14.025C85.2928 13.6417 85.0678 13.3667 84.6178 13.2C84.1678 13.0333 83.4761 12.8917 82.5428 12.775C81.4428 12.6083 80.5344 12.4167 79.8178 12.2C79.1011 11.9833 78.4761 11.6 77.9428 11.05C77.4261 10.5 77.1678 9.71667 77.1678 8.7C77.1678 7.85 77.4094 7.1 77.8928 6.45C78.3928 5.78333 79.1094 5.26667 80.0428 4.9C80.9928 4.53333 82.1094 4.35 83.3928 4.35C84.3428 4.35 85.2844 4.45833 86.2178 4.675C87.1678 4.875 87.9511 5.15833 88.5678 5.525L87.2678 8.3C86.0844 7.63333 84.7928 7.3 83.3928 7.3C82.5594 7.3 81.9344 7.41667 81.5178 7.65C81.1011 7.88333 80.8928 8.18333 80.8928 8.55C80.8928 8.96667 81.1178 9.25833 81.5678 9.425C82.0178 9.59167 82.7344 9.75 83.7178 9.9C84.8178 10.0833 85.7178 10.2833 86.4178 10.5C87.1178 10.7 87.7261 11.075 88.2428 11.625C88.7594 12.175 89.0178 12.9417 89.0178 13.925C89.0178 14.7583 88.7678 15.5 88.2678 16.15C87.7678 16.8 87.0344 17.3083 86.0678 17.675C85.1178 18.025 83.9844 18.2 82.6678 18.2ZM95.749 3.75V8.375H103.849V11.625H95.749V18H91.699V0.499999H104.924V3.75H95.749ZM112.45 4.35C114.533 4.35 116.133 4.85 117.25 5.85C118.366 6.83333 118.925 8.325 118.925 10.325V18H115.275V16.325C114.541 17.575 113.175 18.2 111.175 18.2C110.141 18.2 109.241 18.025 108.475 17.675C107.725 17.325 107.15 16.8417 106.75 16.225C106.35 15.6083 106.15 14.9083 106.15 14.125C106.15 12.875 106.616 11.8917 107.55 11.175C108.5 10.4583 109.958 10.1 111.925 10.1H115.025C115.025 9.25 114.766 8.6 114.25 8.15C113.733 7.68333 112.958 7.45 111.925 7.45C111.208 7.45 110.5 7.56667 109.8 7.8C109.116 8.01667 108.533 8.31667 108.05 8.7L106.65 5.975C107.383 5.45833 108.258 5.05833 109.275 4.775C110.308 4.49167 111.366 4.35 112.45 4.35ZM112.15 15.575C112.816 15.575 113.408 15.425 113.925 15.125C114.441 14.8083 114.808 14.35 115.025 13.75V12.375H112.35C110.75 12.375 109.95 12.9 109.95 13.95C109.95 14.45 110.141 14.85 110.525 15.15C110.925 15.4333 111.466 15.575 112.15 15.575ZM135.56 4.55L129.885 18H125.86L120.21 4.55H124.235L127.96 13.7L131.81 4.55H135.56ZM141.481 18.2C140.365 18.2 139.273 18.0667 138.206 17.8C137.14 17.5167 136.29 17.1667 135.656 16.75L136.956 13.95C137.556 14.3333 138.281 14.65 139.131 14.9C139.981 15.1333 140.815 15.25 141.631 15.25C143.281 15.25 144.106 14.8417 144.106 14.025C144.106 13.6417 143.881 13.3667 143.431 13.2C142.981 13.0333 142.29 12.8917 141.356 12.775C140.256 12.6083 139.348 12.4167 138.631 12.2C137.915 11.9833 137.29 11.6 136.756 11.05C136.24 10.5 135.981 9.71667 135.981 8.7C135.981 7.85 136.223 7.1 136.706 6.45C137.206 5.78333 137.923 5.26667 138.856 4.9C139.806 4.53333 140.923 4.35 142.206 4.35C143.156 4.35 144.098 4.45833 145.031 4.675C145.981 4.875 146.765 5.15833 147.381 5.525L146.081 8.3C144.898 7.63333 143.606 7.3 142.206 7.3C141.373 7.3 140.748 7.41667 140.331 7.65C139.915 7.88333 139.706 8.18333 139.706 8.55C139.706 8.96667 139.931 9.25833 140.381 9.425C140.831 9.59167 141.548 9.75 142.531 9.9C143.631 10.0833 144.531 10.2833 145.231 10.5C145.931 10.7 146.54 11.075 147.056 11.625C147.573 12.175 147.831 12.9417 147.831 13.925C147.831 14.7583 147.581 15.5 147.081 16.15C146.581 16.8 145.848 17.3083 144.881 17.675C143.931 18.025 142.798 18.2 141.481 18.2Z" fill="#1E58FF"/>
</svg>
